<mxfile host="app.diagrams.net" agent="Mozilla/5.0 (Windows NT 10.0; Win64; x64; rv:136.0) Gecko/20100101 Firefox/136.0" version="26.1.0">
  <diagram name="Page-1" id="y9-8R16NThTozks5_kAy">
    <mxGraphModel dx="607" dy="331" grid="1" gridSize="10" guides="1" tooltips="1" connect="1" arrows="1" fold="1" page="1" pageScale="1" pageWidth="595" pageHeight="842" math="1" shadow="0">
      <root>
        <mxCell id="0" />
        <mxCell id="1" parent="0" />
        <mxCell id="m-ElKV-V_TLHjyo2mhaN-1" value="" style="ellipse;whiteSpace=wrap;html=1;aspect=fixed;fillColor=#F0F0F0;" vertex="1" parent="1">
          <mxGeometry x="280" y="120" width="80" height="80" as="geometry" />
        </mxCell>
        <mxCell id="m-ElKV-V_TLHjyo2mhaN-4" value="" style="endArrow=none;html=1;rounded=0;" edge="1" parent="1">
          <mxGeometry width="50" height="50" relative="1" as="geometry">
            <mxPoint x="302.5" y="159.66" as="sourcePoint" />
            <mxPoint x="337.5" y="159.9" as="targetPoint" />
          </mxGeometry>
        </mxCell>
        <mxCell id="m-ElKV-V_TLHjyo2mhaN-5" value="&lt;font style=&quot;font-size: 14px;&quot;&gt;$$x_0$$&lt;/font&gt;" style="text;html=1;align=center;verticalAlign=middle;whiteSpace=wrap;rounded=0;" vertex="1" parent="1">
          <mxGeometry x="200" y="100" width="30" height="20" as="geometry" />
        </mxCell>
        <mxCell id="m-ElKV-V_TLHjyo2mhaN-6" value="&lt;font style=&quot;font-size: 14px;&quot;&gt;$$x_1$$&lt;/font&gt;" style="text;html=1;align=center;verticalAlign=middle;whiteSpace=wrap;rounded=0;" vertex="1" parent="1">
          <mxGeometry x="200" y="200" width="30" height="20" as="geometry" />
        </mxCell>
        <mxCell id="m-ElKV-V_TLHjyo2mhaN-7" value="" style="endArrow=blockThin;html=1;rounded=0;exitX=1;exitY=0.5;exitDx=0;exitDy=0;entryX=0;entryY=0;entryDx=0;entryDy=0;endFill=1;" edge="1" parent="1" source="m-ElKV-V_TLHjyo2mhaN-5" target="m-ElKV-V_TLHjyo2mhaN-1">
          <mxGeometry width="50" height="50" relative="1" as="geometry">
            <mxPoint x="260" y="110" as="sourcePoint" />
            <mxPoint x="310" y="60" as="targetPoint" />
            <Array as="points">
              <mxPoint x="250" y="110" />
            </Array>
          </mxGeometry>
        </mxCell>
        <mxCell id="m-ElKV-V_TLHjyo2mhaN-8" value="" style="endArrow=blockThin;html=1;rounded=0;entryX=0;entryY=1;entryDx=0;entryDy=0;exitX=1;exitY=0.5;exitDx=0;exitDy=0;endFill=1;" edge="1" parent="1" source="m-ElKV-V_TLHjyo2mhaN-6" target="m-ElKV-V_TLHjyo2mhaN-1">
          <mxGeometry width="50" height="50" relative="1" as="geometry">
            <mxPoint x="280" y="290" as="sourcePoint" />
            <mxPoint x="330" y="240" as="targetPoint" />
            <Array as="points">
              <mxPoint x="250" y="210" />
            </Array>
          </mxGeometry>
        </mxCell>
        <mxCell id="m-ElKV-V_TLHjyo2mhaN-9" value="" style="endArrow=blockThin;html=1;rounded=0;exitX=1;exitY=0.5;exitDx=0;exitDy=0;endFill=1;" edge="1" parent="1" source="m-ElKV-V_TLHjyo2mhaN-1">
          <mxGeometry width="50" height="50" relative="1" as="geometry">
            <mxPoint x="400" y="170" as="sourcePoint" />
            <mxPoint x="400" y="160" as="targetPoint" />
          </mxGeometry>
        </mxCell>
        <mxCell id="m-ElKV-V_TLHjyo2mhaN-10" value="&lt;font style=&quot;font-size: 14px;&quot;&gt;$$y$$&lt;/font&gt;" style="text;html=1;align=center;verticalAlign=middle;whiteSpace=wrap;rounded=0;" vertex="1" parent="1">
          <mxGeometry x="400" y="150" width="30" height="20" as="geometry" />
        </mxCell>
      </root>
    </mxGraphModel>
  </diagram>
</mxfile>
